<svg width="195" height="39" viewBox="0 0 195 39" fill="none" xmlns="http://www.w3.org/2000/svg">
<g filter="url(#filter0_d_125_229)">
<path d="M5 6.5C5 6.0357 5 5.80355 5.01541 5.6077C5.20838 3.15582 7.15582 1.20838 9.6077 1.01541C9.80355 1 10.0357 1 10.5 1H184.5C184.964 1 185.196 1 185.392 1.01541C187.844 1.20838 189.792 3.15582 189.985 5.6077C190 5.80355 190 6.0357 190 6.5V24.5C190 24.9643 190 25.1965 189.985 25.3923C189.792 27.8442 187.844 29.7916 185.392 29.9846C185.196 30 184.964 30 184.5 30H10.5C10.0357 30 9.80355 30 9.6077 29.9846C7.15582 29.7916 5.20838 27.8442 5.01541 25.3923C5 25.1965 5 24.9643 5 24.5V6.5Z" fill="#4CCCC3" fill-opacity="0.71" shape-rendering="crispEdges"/>
<path d="M4.51695 5.56848C4.49999 5.78407 4.49999 6.03413 4.5 6.47075L4.5 6.5V24.5L4.5 24.5293C4.49999 24.9659 4.49999 25.2159 4.51695 25.4315C4.72922 28.1286 6.87141 30.2708 9.56848 30.483C9.78407 30.5 10.0341 30.5 10.4707 30.5H10.5H184.5H184.529C184.966 30.5 185.216 30.5 185.432 30.483C188.129 30.2708 190.271 28.1286 190.483 25.4315C190.5 25.2158 190.5 24.9657 190.5 24.5288V24.5V6.5V6.47124C190.5 6.03432 190.5 5.78415 190.483 5.56848C190.271 2.8714 188.129 0.729218 185.432 0.516955C185.216 0.499987 184.966 0.499991 184.529 0.5L184.5 0.5H10.5L10.4707 0.5C10.0341 0.499991 9.78407 0.499987 9.56848 0.516955C6.87141 0.729219 4.72922 2.87141 4.51695 5.56848Z" stroke="black" shape-rendering="crispEdges"/>
</g>
<defs>
<filter id="filter0_d_125_229" x="0" y="0" width="195" height="39" filterUnits="userSpaceOnUse" color-interpolation-filters="sRGB">
<feFlood flood-opacity="0" result="BackgroundImageFix"/>
<feColorMatrix in="SourceAlpha" type="matrix" values="0 0 0 0 0 0 0 0 0 0 0 0 0 0 0 0 0 0 127 0" result="hardAlpha"/>
<feOffset dy="4"/>
<feGaussianBlur stdDeviation="2"/>
<feComposite in2="hardAlpha" operator="out"/>
<feColorMatrix type="matrix" values="0 0 0 0 0 0 0 0 0 0 0 0 0 0 0 0 0 0 0.25 0"/>
<feBlend mode="normal" in2="BackgroundImageFix" result="effect1_dropShadow_125_229"/>
<feBlend mode="normal" in="SourceGraphic" in2="effect1_dropShadow_125_229" result="shape"/>
</filter>
</defs>
</svg>
